<?xml version="1.0" encoding="utf-8"?>
<!-- Generator: Adobe Illustrator 26.4.1, SVG Export Plug-In . SVG Version: 6.00 Build 0)  -->
<svg version="1.1" id="Layer_1" xmlns="http://www.w3.org/2000/svg" xmlns:xlink="http://www.w3.org/1999/xlink" x="0px" y="0px"
	 viewBox="0 0 39.9 40" style="enable-background:new 0 0 39.9 40;" xml:space="preserve">
<style type="text/css">
	.st0{fill:#CC9601;}
</style>
<g id="logoipsum-logo-55" transform="translate(-0.317 -0.923)">
	<path id="Path_10" class="st0" d="M25.4,2l-3.9-1.1l-3.3,12.4l-3-11.2l-3.9,1.1l3.2,12.1L6.4,7.2l-2.9,2.9l8.8,8.8L1.4,16l-1.1,3.9
		l12,3.2c-1-4.4,1.7-8.8,6.1-9.8s8.8,1.7,9.8,6.1c0.3,1.2,0.3,2.5,0,3.7L39.1,26l1.1-3.9l-12.1-3.2l11-2.9L38.1,12L26,15.2l8.1-8.1
		l-2.9-2.9L22.5,13L25.4,2z"/>
	<path id="Path_11" class="st0" d="M28.2,23.1c-0.3,1.4-1,2.7-2,3.7l7.9,7.9l2.9-2.9L28.2,23.1z"/>
	<path id="Path_12" class="st0" d="M26.1,27c-1,1-2.3,1.8-3.6,2.2l2.9,10.7l3.9-1.1L26.1,27z"/>
	<path id="Path_13" class="st0" d="M22.3,29.1c-1.4,0.4-2.8,0.3-4.2,0l-2.9,10.8l3.9,1.1L22.3,29.1z"/>
	<path id="Path_14" class="st0" d="M18,29.1c-1.4-0.4-2.6-1.2-3.6-2.2l-7.9,7.9l2.9,2.9L18,29.1z"/>
	<path id="Path_15" class="st0" d="M14.3,26.8c-1-1-1.6-2.3-2-3.7l-11,2.9L2.4,30L14.3,26.8z"/>
</g>
</svg>
